<mxfile host="app.diagrams.net" agent="Mozilla/5.0 (Windows NT 10.0; Win64; x64) AppleWebKit/537.36 (KHTML, like Gecko) Chrome/131.0.0.0 Safari/537.36" version="25.0.1">
  <diagram name="Page-1" id="oqSU9KzLbh5eeLuWKVlT">
    <mxGraphModel dx="2625" dy="1305" grid="1" gridSize="10" guides="1" tooltips="1" connect="1" arrows="1" fold="1" page="1" pageScale="1" pageWidth="850" pageHeight="1100" math="0" shadow="0">
      <root>
        <mxCell id="0" />
        <mxCell id="1" parent="0" />
        <mxCell id="LtmIGbS1m5UweqCvQUtd-1" value="" style="rounded=0;whiteSpace=wrap;html=1;rotation=90;" vertex="1" parent="1">
          <mxGeometry x="-283.43" y="718.44" width="1408.76" height="386.89" as="geometry" />
        </mxCell>
        <mxCell id="LtmIGbS1m5UweqCvQUtd-5" value="&lt;font style=&quot;font-size: 18px;&quot;&gt;Authentication&lt;/font&gt;" style="ellipse;whiteSpace=wrap;html=1;" vertex="1" parent="1">
          <mxGeometry x="280" y="270" width="260" height="80" as="geometry" />
        </mxCell>
        <mxCell id="LtmIGbS1m5UweqCvQUtd-6" value="&lt;font style=&quot;font-size: 18px;&quot;&gt;Check Status&amp;nbsp;&lt;/font&gt;" style="ellipse;whiteSpace=wrap;html=1;" vertex="1" parent="1">
          <mxGeometry x="280" y="370" width="260" height="80" as="geometry" />
        </mxCell>
        <mxCell id="LtmIGbS1m5UweqCvQUtd-7" value="&lt;font style=&quot;font-size: 18px;&quot;&gt;Room reservation&lt;/font&gt;" style="ellipse;whiteSpace=wrap;html=1;" vertex="1" parent="1">
          <mxGeometry x="280" y="470" width="260" height="80" as="geometry" />
        </mxCell>
        <mxCell id="LtmIGbS1m5UweqCvQUtd-8" value="&lt;font style=&quot;font-size: 18px;&quot;&gt;Food Booking&lt;/font&gt;" style="ellipse;whiteSpace=wrap;html=1;" vertex="1" parent="1">
          <mxGeometry x="280" y="590" width="260" height="80" as="geometry" />
        </mxCell>
        <mxCell id="LtmIGbS1m5UweqCvQUtd-9" value="&lt;font style=&quot;font-size: 18px;&quot;&gt;Billing&lt;/font&gt;" style="ellipse;whiteSpace=wrap;html=1;" vertex="1" parent="1">
          <mxGeometry x="280" y="705" width="260" height="80" as="geometry" />
        </mxCell>
        <mxCell id="LtmIGbS1m5UweqCvQUtd-10" value="&lt;font style=&quot;font-size: 18px;&quot;&gt;Payment&amp;nbsp;&lt;/font&gt;" style="ellipse;whiteSpace=wrap;html=1;" vertex="1" parent="1">
          <mxGeometry x="280" y="860" width="260" height="80" as="geometry" />
        </mxCell>
        <mxCell id="LtmIGbS1m5UweqCvQUtd-11" value="&lt;font style=&quot;font-size: 18px;&quot;&gt;Feedback&lt;/font&gt;" style="ellipse;whiteSpace=wrap;html=1;" vertex="1" parent="1">
          <mxGeometry x="280" y="1090" width="260" height="80" as="geometry" />
        </mxCell>
        <mxCell id="LtmIGbS1m5UweqCvQUtd-12" value="&lt;font style=&quot;font-size: 18px;&quot;&gt;Cash&amp;nbsp;&lt;/font&gt;" style="ellipse;whiteSpace=wrap;html=1;" vertex="1" parent="1">
          <mxGeometry x="250" y="990" width="150" height="60" as="geometry" />
        </mxCell>
        <mxCell id="LtmIGbS1m5UweqCvQUtd-13" value="&lt;font style=&quot;font-size: 18px;&quot;&gt;Online&amp;nbsp;&lt;/font&gt;" style="ellipse;whiteSpace=wrap;html=1;" vertex="1" parent="1">
          <mxGeometry x="440" y="990" width="150" height="60" as="geometry" />
        </mxCell>
        <mxCell id="LtmIGbS1m5UweqCvQUtd-14" value="&lt;font style=&quot;font-size: 18px;&quot;&gt;Menu Preparation&lt;/font&gt;" style="ellipse;whiteSpace=wrap;html=1;" vertex="1" parent="1">
          <mxGeometry x="280" y="1200" width="260" height="80" as="geometry" />
        </mxCell>
        <mxCell id="LtmIGbS1m5UweqCvQUtd-15" value="&lt;font style=&quot;font-size: 18px;&quot;&gt;Room Cleaning&lt;/font&gt;" style="ellipse;whiteSpace=wrap;html=1;" vertex="1" parent="1">
          <mxGeometry x="280" y="1340" width="260" height="80" as="geometry" />
        </mxCell>
        <mxCell id="LtmIGbS1m5UweqCvQUtd-16" value="&lt;font style=&quot;font-size: 18px;&quot;&gt;Tips&lt;/font&gt;" style="ellipse;whiteSpace=wrap;html=1;" vertex="1" parent="1">
          <mxGeometry x="280" y="1490" width="260" height="80" as="geometry" />
        </mxCell>
        <mxCell id="LtmIGbS1m5UweqCvQUtd-17" value="&lt;font style=&quot;font-size: 18px;&quot;&gt;Hotel Managment System&lt;/font&gt;" style="text;html=1;align=center;verticalAlign=middle;whiteSpace=wrap;rounded=0;" vertex="1" parent="1">
          <mxGeometry x="285" y="220" width="250" height="30" as="geometry" />
        </mxCell>
        <mxCell id="LtmIGbS1m5UweqCvQUtd-18" value="Admin" style="shape=umlActor;verticalLabelPosition=bottom;verticalAlign=top;html=1;outlineConnect=0;" vertex="1" parent="1">
          <mxGeometry x="720" y="490" width="100" height="190" as="geometry" />
        </mxCell>
        <mxCell id="LtmIGbS1m5UweqCvQUtd-20" value="Customer" style="shape=umlActor;verticalLabelPosition=bottom;verticalAlign=top;html=1;outlineConnect=0;" vertex="1" parent="1">
          <mxGeometry y="790" width="100" height="190" as="geometry" />
        </mxCell>
        <mxCell id="LtmIGbS1m5UweqCvQUtd-21" value="Chef" style="shape=umlActor;verticalLabelPosition=bottom;verticalAlign=top;html=1;outlineConnect=0;" vertex="1" parent="1">
          <mxGeometry x="730" y="1030" width="100" height="190" as="geometry" />
        </mxCell>
        <mxCell id="LtmIGbS1m5UweqCvQUtd-22" value="HouseKeeper" style="shape=umlActor;verticalLabelPosition=bottom;verticalAlign=top;html=1;outlineConnect=0;" vertex="1" parent="1">
          <mxGeometry x="730" y="1340" width="100" height="190" as="geometry" />
        </mxCell>
        <mxCell id="LtmIGbS1m5UweqCvQUtd-24" value="" style="endArrow=none;html=1;rounded=0;exitX=1;exitY=0.5;exitDx=0;exitDy=0;" edge="1" parent="1" source="LtmIGbS1m5UweqCvQUtd-5">
          <mxGeometry width="50" height="50" relative="1" as="geometry">
            <mxPoint x="730" y="950" as="sourcePoint" />
            <mxPoint x="690" y="540" as="targetPoint" />
          </mxGeometry>
        </mxCell>
        <mxCell id="LtmIGbS1m5UweqCvQUtd-25" value="" style="endArrow=none;html=1;rounded=0;exitX=1;exitY=0.5;exitDx=0;exitDy=0;" edge="1" parent="1" source="LtmIGbS1m5UweqCvQUtd-6">
          <mxGeometry width="50" height="50" relative="1" as="geometry">
            <mxPoint x="550" y="320" as="sourcePoint" />
            <mxPoint x="690" y="580" as="targetPoint" />
          </mxGeometry>
        </mxCell>
        <mxCell id="LtmIGbS1m5UweqCvQUtd-26" value="" style="endArrow=none;html=1;rounded=0;exitX=1;exitY=0.5;exitDx=0;exitDy=0;" edge="1" parent="1" source="LtmIGbS1m5UweqCvQUtd-9">
          <mxGeometry width="50" height="50" relative="1" as="geometry">
            <mxPoint x="550" y="420" as="sourcePoint" />
            <mxPoint x="700" y="610" as="targetPoint" />
          </mxGeometry>
        </mxCell>
        <mxCell id="LtmIGbS1m5UweqCvQUtd-27" value="" style="endArrow=none;html=1;rounded=0;entryX=0;entryY=0.5;entryDx=0;entryDy=0;" edge="1" parent="1" source="LtmIGbS1m5UweqCvQUtd-20" target="LtmIGbS1m5UweqCvQUtd-10">
          <mxGeometry width="50" height="50" relative="1" as="geometry">
            <mxPoint x="350" y="1110" as="sourcePoint" />
            <mxPoint x="400" y="1060" as="targetPoint" />
          </mxGeometry>
        </mxCell>
        <mxCell id="LtmIGbS1m5UweqCvQUtd-28" value="" style="endArrow=none;html=1;rounded=0;entryX=0;entryY=0.5;entryDx=0;entryDy=0;" edge="1" parent="1" target="LtmIGbS1m5UweqCvQUtd-11">
          <mxGeometry width="50" height="50" relative="1" as="geometry">
            <mxPoint x="100" y="910" as="sourcePoint" />
            <mxPoint x="290" y="910" as="targetPoint" />
          </mxGeometry>
        </mxCell>
        <mxCell id="LtmIGbS1m5UweqCvQUtd-29" value="" style="endArrow=none;html=1;rounded=0;entryX=0;entryY=0.5;entryDx=0;entryDy=0;" edge="1" parent="1" target="LtmIGbS1m5UweqCvQUtd-8">
          <mxGeometry width="50" height="50" relative="1" as="geometry">
            <mxPoint x="110" y="850" as="sourcePoint" />
            <mxPoint x="300" y="920" as="targetPoint" />
          </mxGeometry>
        </mxCell>
        <mxCell id="LtmIGbS1m5UweqCvQUtd-30" value="" style="endArrow=none;html=1;rounded=0;entryX=0;entryY=0.5;entryDx=0;entryDy=0;" edge="1" parent="1" target="LtmIGbS1m5UweqCvQUtd-7">
          <mxGeometry width="50" height="50" relative="1" as="geometry">
            <mxPoint x="110" y="820" as="sourcePoint" />
            <mxPoint x="290" y="640" as="targetPoint" />
          </mxGeometry>
        </mxCell>
        <mxCell id="LtmIGbS1m5UweqCvQUtd-31" value="" style="endArrow=none;html=1;rounded=0;entryX=0;entryY=0.5;entryDx=0;entryDy=0;" edge="1" parent="1" source="LtmIGbS1m5UweqCvQUtd-20" target="LtmIGbS1m5UweqCvQUtd-6">
          <mxGeometry width="50" height="50" relative="1" as="geometry">
            <mxPoint x="120" y="830" as="sourcePoint" />
            <mxPoint x="290" y="520" as="targetPoint" />
          </mxGeometry>
        </mxCell>
        <mxCell id="LtmIGbS1m5UweqCvQUtd-32" value="" style="endArrow=none;html=1;rounded=0;entryX=0;entryY=0.5;entryDx=0;entryDy=0;" edge="1" parent="1" target="LtmIGbS1m5UweqCvQUtd-5">
          <mxGeometry width="50" height="50" relative="1" as="geometry">
            <mxPoint x="80" y="760" as="sourcePoint" />
            <mxPoint x="290" y="420" as="targetPoint" />
          </mxGeometry>
        </mxCell>
        <mxCell id="LtmIGbS1m5UweqCvQUtd-33" value="" style="endArrow=none;html=1;rounded=0;entryX=0;entryY=0.5;entryDx=0;entryDy=0;" edge="1" parent="1" target="LtmIGbS1m5UweqCvQUtd-16">
          <mxGeometry width="50" height="50" relative="1" as="geometry">
            <mxPoint x="110" y="980" as="sourcePoint" />
            <mxPoint x="290" y="1140" as="targetPoint" />
          </mxGeometry>
        </mxCell>
        <mxCell id="LtmIGbS1m5UweqCvQUtd-34" value="" style="endArrow=none;html=1;rounded=0;exitX=1;exitY=0.5;exitDx=0;exitDy=0;" edge="1" parent="1" source="LtmIGbS1m5UweqCvQUtd-14">
          <mxGeometry width="50" height="50" relative="1" as="geometry">
            <mxPoint x="290" y="1110" as="sourcePoint" />
            <mxPoint x="710" y="1150" as="targetPoint" />
          </mxGeometry>
        </mxCell>
        <mxCell id="LtmIGbS1m5UweqCvQUtd-35" value="" style="endArrow=none;html=1;rounded=0;exitX=0.914;exitY=0.778;exitDx=0;exitDy=0;exitPerimeter=0;" edge="1" parent="1" source="LtmIGbS1m5UweqCvQUtd-9">
          <mxGeometry width="50" height="50" relative="1" as="geometry">
            <mxPoint x="550" y="1250" as="sourcePoint" />
            <mxPoint x="710" y="1120" as="targetPoint" />
          </mxGeometry>
        </mxCell>
        <mxCell id="LtmIGbS1m5UweqCvQUtd-36" value="" style="endArrow=none;html=1;rounded=0;exitX=1;exitY=0.5;exitDx=0;exitDy=0;" edge="1" parent="1" source="LtmIGbS1m5UweqCvQUtd-15">
          <mxGeometry width="50" height="50" relative="1" as="geometry">
            <mxPoint x="550" y="1250" as="sourcePoint" />
            <mxPoint x="710" y="1430" as="targetPoint" />
          </mxGeometry>
        </mxCell>
        <mxCell id="LtmIGbS1m5UweqCvQUtd-41" value="&amp;lt;&amp;lt;extend&amp;gt;&amp;gt;" style="html=1;verticalAlign=bottom;labelBackgroundColor=none;endArrow=open;endFill=0;dashed=1;rounded=0;entryX=0.5;entryY=0;entryDx=0;entryDy=0;exitX=0.5;exitY=1;exitDx=0;exitDy=0;" edge="1" parent="1" source="LtmIGbS1m5UweqCvQUtd-15" target="LtmIGbS1m5UweqCvQUtd-16">
          <mxGeometry width="160" relative="1" as="geometry">
            <mxPoint x="460" y="1390" as="sourcePoint" />
            <mxPoint x="620" y="1390" as="targetPoint" />
          </mxGeometry>
        </mxCell>
        <mxCell id="LtmIGbS1m5UweqCvQUtd-45" value="&amp;lt;&amp;lt;extend&amp;gt;&amp;gt;" style="html=1;verticalAlign=bottom;labelBackgroundColor=none;endArrow=open;endFill=0;dashed=1;rounded=0;exitX=0;exitY=0.5;exitDx=0;exitDy=0;entryX=0;entryY=0.5;entryDx=0;entryDy=0;" edge="1" parent="1" source="LtmIGbS1m5UweqCvQUtd-14" target="LtmIGbS1m5UweqCvQUtd-16">
          <mxGeometry width="160" relative="1" as="geometry">
            <mxPoint x="460" y="1390" as="sourcePoint" />
            <mxPoint x="620" y="1390" as="targetPoint" />
          </mxGeometry>
        </mxCell>
        <mxCell id="LtmIGbS1m5UweqCvQUtd-46" value="&amp;lt;&amp;lt;include&amp;gt;&amp;gt;" style="html=1;verticalAlign=bottom;labelBackgroundColor=none;endArrow=open;endFill=0;dashed=1;rounded=0;exitX=0.5;exitY=1;exitDx=0;exitDy=0;" edge="1" parent="1" source="LtmIGbS1m5UweqCvQUtd-9" target="LtmIGbS1m5UweqCvQUtd-10">
          <mxGeometry width="160" relative="1" as="geometry">
            <mxPoint x="460" y="800" as="sourcePoint" />
            <mxPoint x="620" y="800" as="targetPoint" />
          </mxGeometry>
        </mxCell>
        <mxCell id="LtmIGbS1m5UweqCvQUtd-47" value="" style="endArrow=block;endSize=16;endFill=0;html=1;rounded=0;entryX=0.5;entryY=1;entryDx=0;entryDy=0;" edge="1" parent="1" target="LtmIGbS1m5UweqCvQUtd-10">
          <mxGeometry width="160" relative="1" as="geometry">
            <mxPoint x="330" y="990" as="sourcePoint" />
            <mxPoint x="490" y="990" as="targetPoint" />
          </mxGeometry>
        </mxCell>
        <mxCell id="LtmIGbS1m5UweqCvQUtd-48" value="" style="endArrow=block;endSize=16;endFill=0;html=1;rounded=0;entryX=0.5;entryY=1;entryDx=0;entryDy=0;" edge="1" parent="1" source="LtmIGbS1m5UweqCvQUtd-13" target="LtmIGbS1m5UweqCvQUtd-10">
          <mxGeometry width="160" relative="1" as="geometry">
            <mxPoint x="340" y="1000" as="sourcePoint" />
            <mxPoint x="420" y="950" as="targetPoint" />
          </mxGeometry>
        </mxCell>
      </root>
    </mxGraphModel>
  </diagram>
</mxfile>
